<svg width="18" height="18" viewBox="0 0 18 18" fill="none" xmlns="http://www.w3.org/2000/svg">
<path fill-rule="evenodd" clip-rule="evenodd" d="M10.789 11.5843C8.80134 13.1763 5.89177 13.051 4.04918 11.2084C2.07215 9.23136 2.07215 6.02596 4.04918 4.04893C6.02621 2.0719 9.2316 2.07191 11.2086 4.04893C13.0512 5.89152 13.1765 8.80109 11.5845 10.7888L15.4513 14.6555C15.6709 14.8752 15.6709 15.2313 15.4513 15.451C15.2316 15.6707 14.8754 15.6707 14.6558 15.451L10.789 11.5843ZM4.84467 10.4129C3.30698 8.87521 3.30698 6.38212 4.84467 4.84443C6.38236 3.30674 8.87545 3.30674 10.4131 4.84443C11.9497 6.38099 11.9508 8.87155 10.4165 10.4095C10.4154 10.4106 10.4143 10.4117 10.4131 10.4129C10.412 10.414 10.4109 10.4151 10.4098 10.4163C8.8718 11.9506 6.38124 11.9495 4.84467 10.4129Z" fill="#6B7683"/>
</svg>
